<?xml version="1.0" encoding="UTF-8"?>
<svg width="527px" height="146px" viewBox="0 0 527 146" version="1.1" xmlns="http://www.w3.org/2000/svg" xmlns:xlink="http://www.w3.org/1999/xlink">
    <!-- Generator: Sketch 49.1 (51147) - http://www.bohemiancoding.com/sketch -->
    <title>MD_Logo_blue_horizontal</title>
    <desc>Created with Sketch.</desc>
    <defs>
        <path d="M11.7690145,2.28431505 L20.6760251,0.272356158 C21.2147373,0.150669246 21.7500964,0.488734966 21.8717834,1.02744708 C21.8881546,1.09992328 21.8963973,1.17399834 21.8963587,1.24830055 L21.8726612,46.8357187 L11.8918087,41.0732708 C11.5857753,40.8965823 11.395717,40.5714935 11.391868,40.2181375 L10.9894075,3.27063174 C10.9842721,2.79918599 11.3091275,2.38819657 11.7690145,2.28431505 Z" id="path-1"></path>
        <path d="M12.0374547,2.26211205 L21.0306513,0.295118168 C21.5701817,0.177111979 22.1032203,0.518824817 22.2212265,1.05835515 C22.2366929,1.1290683 22.2444358,1.20125171 22.2443191,1.27363641 L22.1708747,46.8304111 L12.1535227,41.0468903 C11.8474892,40.8702018 11.657431,40.545113 11.653582,40.191757 L11.2511831,3.24991026 C11.2460199,2.77590282 11.5743664,2.3633988 12.0374547,2.26211205 Z" id="path-3"></path>
    </defs>
    <g id="Page-1" stroke="none" stroke-width="1" fill="none" fill-rule="evenodd">
        <g id="Темный-фон" transform="translate(-107.000000, -183.000000)">
            <g id="MD_Logo_blue_horizontal" transform="translate(107.000000, 183.000000)">
                <rect id="Rectangle" fill="#00B2F4" x="0" y="0" width="146" height="146" rx="7"></rect>
                <g id="D" transform="translate(99.000000, 49.000000)" fill="#FFFFFF">
                    <path d="M0,24.5138889 C0,21.5046146 0.151721639,18.5416812 1.29551821,15.625 C2.43931478,12.7083187 4.10829902,10.0926042 6.30252101,7.77777778 C8.496743,5.46295139 11.1577808,3.58797014 14.2857143,2.15277778 C16.3710033,1.19598287 19.9424318,0.478390278 25,0 L25,12.0138889 C22.3778448,12.268516 20.5921305,12.6504604 19.6428571,13.1597222 C18.2189471,13.9236149 17.0518253,14.9189753 16.1414566,16.1458333 C15.2310879,17.3726913 14.5541572,18.7615663 14.1106443,20.3125 C13.6671313,21.8634337 13.4453782,23.4027701 13.4453782,24.9305556 C13.4453782,26.6435271 13.702145,28.2870292 14.2156863,29.8611111 C14.7292276,31.4351931 15.4761856,32.8240681 16.4565826,34.0277778 C17.4369797,35.2314875 18.6391152,36.192126 20.0630252,36.9097222 C21.0122986,37.3881197 22.6579568,37.746916 25,37.9861111 L25,50 C20.0124596,49.5138937 16.4993877,48.7847271 14.4607843,47.8125 C11.4028792,46.3541594 8.76518382,44.4213083 6.54761905,42.0138889 C4.33005427,39.6064694 2.61438515,36.8750153 1.40056022,33.8194444 C0.186735294,30.7638736 0,27.6620528 0,24.5138889 Z" id="Path" transform="translate(12.500000, 25.000000) scale(-1, 1) translate(-12.500000, -25.000000) "></path>
                </g>
                <g id="M_r" transform="translate(48.000000, 48.000000)">
                    <g id="Rectangle-2-Copy-4">
                        <mask id="mask-2" fill="white">
                            <use xlink:href="#path-1"></use>
                        </mask>
                        <use id="Mask" fill="#FFFFFF" transform="translate(16.442853, 23.541641) scale(-1, 1) rotate(-30.000000) translate(-16.442853, -23.541641) " xlink:href="#path-1"></use>
                        <path d="M21.6501761,1.55288322 L22.962584,1.24460101 C23.4808677,1.12285714 24.0036656,1.42852593 24.1517796,1.93989833 L34.4658619,37.5498704 C34.6195107,38.0803518 34.3140275,38.6349489 33.7835461,38.7885977 C33.6657345,38.8227207 33.5426505,38.834879 33.4204395,38.8244655 L21.8763441,37.8408098 C21.3597639,37.7967927 20.9624926,37.3652719 20.9612479,36.8468213 L20.878853,2.52878718 C20.8777364,2.06369931 21.1974103,1.65923707 21.6501761,1.55288322 Z" fill="#000000" opacity="0.100000001" mask="url(#mask-2)" transform="translate(27.692225, 20.022995) rotate(-354.000000) translate(-27.692225, -20.022995) "></path>
                    </g>
                    <rect id="Rectangle-2-Copy-5" fill="#FFFFFF" transform="translate(29.750000, 26.000000) scale(-1, 1) translate(-29.750000, -26.000000) " x="22.75" y="1" width="14" height="50" rx="1"></rect>
                    <rect id="Rectangle-2-Copy-6" fill="#FFFFFF" opacity="0.400000006" transform="translate(30.000000, 26.000000) scale(-1, 1) translate(-30.000000, -26.000000) " x="23" y="1" width="14" height="50" rx="1"></rect>
                </g>
                <g id="M_l" transform="translate(41.500000, 73.500000) scale(-1, 1) translate(-41.500000, -73.500000) translate(23.000000, 48.000000)">
                    <g id="Rectangle-2-Copy-4">
                        <mask id="mask-4" fill="white">
                            <use xlink:href="#path-3"></use>
                        </mask>
                        <use id="Mask" fill="#E5E5E5" transform="translate(16.747722, 23.551112) scale(-1, 1) rotate(-30.000000) translate(-16.747722, -23.551112) " xlink:href="#path-3"></use>
                    </g>
                    <rect id="Rectangle-2-Copy-5" fill="#FFFFFF" transform="translate(30.000000, 26.000000) scale(-1, 1) translate(-30.000000, -26.000000) " x="23" y="1" width="14" height="50" rx="1"></rect>
                </g>
                <path d="M198.88,95 L198.88,72.56 L191.74,88.34 L185.5,88.34 L178.36,72.56 L178.36,95 L166.66,95 L166.66,52.4 L179.44,52.4 L188.62,72.44 L197.86,52.4 L210.58,52.4 L210.58,95 L198.88,95 Z M229.674694,52.4 L240.354694,52.4 L255.114694,95 L243.234694,95 L240.654694,86.66 L229.314694,86.66 L226.794694,95 L214.854694,95 L229.674694,52.4 Z M238.794694,78.86 L235.014694,65.66 L231.054694,78.86 L238.794694,78.86 Z M255.309388,73.34 C255.309388,70.739987 255.799383,68.1800126 256.779388,65.66 C257.759393,63.1399874 259.189379,60.88001 261.069388,58.88 C262.949398,56.87999 265.229375,55.2600062 267.909388,54.02 C270.589402,52.7799938 273.649371,52.16 277.089388,52.16 C281.209409,52.16 284.779373,53.0099915 287.799388,54.71 C290.819403,56.4100085 293.069381,58.659986 294.549388,61.46 L285.609388,67.82 C285.209386,66.7799948 284.679392,65.9200034 284.019388,65.24 C283.359385,64.5599966 282.629392,64.020002 281.829388,63.62 C281.029384,63.219998 280.199393,62.9400008 279.339388,62.78 C278.479384,62.6199992 277.649392,62.54 276.849388,62.54 C275.16938,62.54 273.719394,62.8699967 272.499388,63.53 C271.279382,64.1900033 270.279392,65.0499947 269.499388,66.11 C268.719384,67.1700053 268.13939,68.3699933 267.759388,69.71 C267.379386,71.0500067 267.189388,72.3799934 267.189388,73.7 C267.189388,75.1800074 267.409386,76.5999932 267.849388,77.96 C268.289391,79.3200068 268.929384,80.5199948 269.769388,81.56 C270.609393,82.6000052 271.639382,83.4299969 272.859388,84.05 C274.079394,84.6700031 275.449381,84.98 276.969388,84.98 C277.769392,84.98 278.589384,84.8900009 279.429388,84.71 C280.269393,84.5299991 281.079384,84.2300021 281.859388,83.81 C282.639392,83.3899979 283.339385,82.8500033 283.959388,82.19 C284.579391,81.5299967 285.069387,80.7200048 285.429388,79.76 L294.969388,85.46 C294.329385,87.0200078 293.359395,88.4199938 292.059388,89.66 C290.759382,90.9000062 289.279397,91.9399958 287.619388,92.78 C285.95938,93.6200042 284.179398,94.2599978 282.279388,94.7 C280.379379,95.1400022 278.529397,95.36 276.729388,95.36 C273.569373,95.36 270.679401,94.7300063 268.059388,93.47 C265.439375,92.2099937 263.179398,90.5400104 261.279388,88.46 C259.379379,86.3799896 257.909394,84.0200132 256.869388,81.38 C255.829383,78.7399868 255.309388,76.0600136 255.309388,73.34 Z M299.844083,95 L299.844083,52.4 L316.224083,52.4 C319.7441,52.4 322.844069,52.9599944 325.524083,54.08 C328.204096,55.2000056 330.444074,56.7199904 332.244083,58.64 C334.044092,60.5600096 335.404078,62.8099871 336.324083,65.39 C337.244087,67.9700129 337.704083,70.7199854 337.704083,73.64 C337.704083,76.8800162 337.194088,79.8099869 336.174083,82.43 C335.154077,85.0500131 333.704092,87.2899907 331.824083,89.15 C329.944073,91.0100093 327.684096,92.4499949 325.044083,93.47 C322.404069,94.4900051 319.464099,95 316.224083,95 L299.844083,95 Z M325.824083,73.64 C325.824083,71.9999918 325.604085,70.5000068 325.164083,69.14 C324.72408,67.7799932 324.094087,66.6200048 323.274083,65.66 C322.454078,64.6999952 321.444089,63.9500027 320.244083,63.41 C319.044077,62.8699973 317.70409,62.6 316.224083,62.6 L311.544083,62.6 L311.544083,84.8 L316.224083,84.8 C317.74409,84.8 319.104077,84.5200028 320.304083,83.96 C321.504089,83.3999972 322.514078,82.620005 323.334083,81.62 C324.154087,80.619995 324.77408,79.4400068 325.194083,78.08 C325.614085,76.7199932 325.824083,75.240008 325.824083,73.64 Z M343.538777,95 L343.538777,52.4 L355.238777,52.4 L355.238777,95 L343.538777,95 Z M392.213471,91.46 C389.173456,94.0200128 385.673491,95.3 381.713471,95.3 C378.953457,95.3 376.313484,94.8100049 373.793471,93.83 C371.273458,92.8499951 369.07348,91.4200094 367.193471,89.54 C365.313462,87.6599906 363.813477,85.3600136 362.693471,82.64 C361.573465,79.9199864 361.013471,76.8200174 361.013471,73.34 C361.013471,70.339985 361.573465,67.5500129 362.693471,64.97 C363.813477,62.3899871 365.353461,60.1500095 367.313471,58.25 C369.273481,56.3499905 371.583458,54.8500055 374.243471,53.75 C376.903484,52.6499945 379.773456,52.1 382.853471,52.1 C384.773481,52.1 386.613462,52.3099979 388.373471,52.73 C390.13348,53.1500021 391.763463,53.7699959 393.263471,54.59 C394.763478,55.4100041 396.113465,56.3899943 397.313471,57.53 C398.513477,58.6700057 399.493467,59.9599928 400.253471,61.4 L391.553471,68.06 C390.713467,66.3799916 389.453479,65.0300051 387.773471,64.01 C386.093463,62.9899949 384.31348,62.48 382.433471,62.48 C381.033464,62.48 379.753477,62.7599972 378.593471,63.32 C377.433465,63.8800028 376.433475,64.659995 375.593471,65.66 C374.753467,66.660005 374.093473,67.8499931 373.613471,69.23 C373.133469,70.6100069 372.893471,72.1199918 372.893471,73.76 C372.893471,75.4400084 373.133469,76.9599932 373.613471,78.32 C374.093473,79.6800068 374.763467,80.8499951 375.623471,81.83 C376.483475,82.8100049 377.513465,83.5699973 378.713471,84.11 C379.913477,84.6500027 381.253464,84.92 382.733471,84.92 C386.133488,84.92 389.133458,83.520014 391.733471,80.72 L384.353471,80.72 L384.353471,72.32 L401.873471,72.32 L401.873471,95 L392.213471,95 L392.213471,91.46 Z M437.288165,91.46 C434.24815,94.0200128 430.748185,95.3 426.788165,95.3 C424.028151,95.3 421.388178,94.8100049 418.868165,93.83 C416.348152,92.8499951 414.148174,91.4200094 412.268165,89.54 C410.388156,87.6599906 408.888171,85.3600136 407.768165,82.64 C406.648159,79.9199864 406.088165,76.8200174 406.088165,73.34 C406.088165,70.339985 406.648159,67.5500129 407.768165,64.97 C408.888171,62.3899871 410.428155,60.1500095 412.388165,58.25 C414.348175,56.3499905 416.658152,54.8500055 419.318165,53.75 C421.978178,52.6499945 424.84815,52.1 427.928165,52.1 C429.848175,52.1 431.688156,52.3099979 433.448165,52.73 C435.208174,53.1500021 436.838158,53.7699959 438.338165,54.59 C439.838173,55.4100041 441.188159,56.3899943 442.388165,57.53 C443.588171,58.6700057 444.568161,59.9599928 445.328165,61.4 L436.628165,68.06 C435.788161,66.3799916 434.528173,65.0300051 432.848165,64.01 C431.168157,62.9899949 429.388174,62.48 427.508165,62.48 C426.108158,62.48 424.828171,62.7599972 423.668165,63.32 C422.508159,63.8800028 421.508169,64.659995 420.668165,65.66 C419.828161,66.660005 419.168167,67.8499931 418.688165,69.23 C418.208163,70.6100069 417.968165,72.1199918 417.968165,73.76 C417.968165,75.4400084 418.208163,76.9599932 418.688165,78.32 C419.168167,79.6800068 419.838161,80.8499951 420.698165,81.83 C421.558169,82.8100049 422.588159,83.5699973 423.788165,84.11 C424.988171,84.6500027 426.328158,84.92 427.808165,84.92 C431.208182,84.92 434.208152,83.520014 436.808165,80.72 L429.428165,80.72 L429.428165,72.32 L446.948165,72.32 L446.948165,95 L437.288165,95 L437.288165,91.46 Z M483.802859,84.8 L483.802859,95 L453.442859,95 L453.442859,52.4 L483.262859,52.4 L483.262859,62.6 L465.142859,62.6 L465.142859,68.6 L480.622859,68.6 L480.622859,78.08 L465.142859,78.08 L465.142859,84.8 L483.802859,84.8 Z M489.997553,95 L489.997553,52.4 L509.557553,52.4 C511.637564,52.4 513.557545,52.8299957 515.317553,53.69 C517.077562,54.5500043 518.587547,55.6699931 519.847553,57.05 C521.10756,58.4300069 522.09755,60.0099911 522.817553,61.79 C523.537557,63.5700089 523.897553,65.359991 523.897553,67.16 C523.897553,69.6400124 523.357559,71.9499893 522.277553,74.09 C521.197548,76.2300107 519.697563,77.9799932 517.777553,79.34 L526.777553,95 L513.577553,95 L506.077553,81.92 L501.697553,81.92 L501.697553,95 L489.997553,95 Z M501.697553,71.72 L509.077553,71.72 C509.797557,71.72 510.46755,71.320004 511.087553,70.52 C511.707557,69.719996 512.017553,68.6000072 512.017553,67.16 C512.017553,65.6799926 511.657557,64.5500039 510.937553,63.77 C510.21755,62.9899961 509.497557,62.6 508.777553,62.6 L501.697553,62.6 L501.697553,71.72 Z" id="MACDIGGER" fill="#FFFFFF"></path>
            </g>
        </g>
    </g>
</svg>